<svg width="980" height="560" viewBox="0 0 980 560" fill="none" xmlns="http://www.w3.org/2000/svg" role="img" aria-labelledby="titulo desc">
  <title id="titulo">Aplicación móvil Wireless HeatMapper</title>
  <desc id="desc">Reproducción de pantallas móviles implementadas: Mis Proyectos, Planos, Captura WiFi y Heatmap.</desc>
  <rect width="980" height="560" rx="18" fill="#F4F6F8"/>

  <g transform="translate(45 44)">
    <rect width="210" height="442" rx="28" fill="#17202A"/>
    <rect x="14" y="22" width="182" height="398" rx="20" fill="#FFFFFF"/>
    <text x="34" y="66" font-family="Inter, Arial" font-size="18" font-weight="850" fill="#17202A">Mis Proyectos</text>
    <rect x="34" y="90" width="142" height="32" rx="8" fill="#F4F6F8" stroke="#D9E2EC"/>
    <text x="44" y="110" font-family="Inter, Arial" font-size="9.2" fill="#5D6B7A">Buscar por proyecto o cliente…</text>
    <rect x="34" y="148" width="142" height="72" rx="10" fill="#EBF5FB" stroke="#BBD7EA"/>
    <text x="46" y="176" font-family="Inter, Arial" font-size="13" font-weight="800" fill="#17202A">Torre Norte</text>
    <text x="46" y="198" font-family="Inter, Arial" font-size="10.5" fill="#5D6B7A">Bulldog Tech.</text>
    <text x="46" y="212" font-family="Inter, Arial" font-size="10.5" fill="#5D6B7A">Opciones</text>
    <rect x="34" y="352" width="142" height="42" rx="18" fill="#2980B9"/>
    <text x="58" y="378" font-family="Inter, Arial" font-size="12.5" font-weight="850" fill="#FFFFFF">Nuevo proyecto</text>
  </g>

  <g transform="translate(285 44)">
    <rect width="210" height="442" rx="28" fill="#17202A"/>
    <rect x="14" y="22" width="182" height="398" rx="20" fill="#FFFFFF"/>
    <text x="34" y="66" font-family="Inter, Arial" font-size="18" font-weight="850" fill="#17202A">Planos</text>
    <rect x="34" y="94" width="142" height="106" rx="12" fill="#F8FAFC" stroke="#D9E2EC"/>
    <rect x="52" y="112" width="106" height="48" rx="6" fill="#EBF5FB"/>
    <text x="52" y="178" font-family="Inter, Arial" font-size="12" font-weight="800" fill="#17202A">Planta baja</text>
    <text x="52" y="194" font-family="Inter, Arial" font-size="9.8" fill="#5D6B7A">Calibrado · Captura</text>
    <rect x="34" y="238" width="142" height="40" rx="8" fill="#FFFFFF" stroke="#D9E2EC"/>
    <text x="50" y="263" font-family="Inter, Arial" font-size="12" font-weight="800" fill="#17202A">Medir distancia</text>
    <rect x="34" y="294" width="142" height="40" rx="8" fill="#FFFFFF" stroke="#D9E2EC"/>
    <text x="50" y="319" font-family="Inter, Arial" font-size="12" font-weight="800" fill="#17202A">Área</text>
    <rect x="34" y="352" width="142" height="42" rx="18" fill="#2980B9"/>
    <text x="58" y="378" font-family="Inter, Arial" font-size="12.5" font-weight="850" fill="#FFFFFF">Importar plano</text>
  </g>

  <g transform="translate(525 44)">
    <rect width="210" height="442" rx="28" fill="#17202A"/>
    <rect x="14" y="22" width="182" height="398" rx="20" fill="#FFFFFF"/>
    <text x="34" y="66" font-family="Inter, Arial" font-size="18" font-weight="850" fill="#17202A">Captura WiFi</text>
    <rect x="34" y="94" width="142" height="130" rx="10" fill="#F8FAFC" stroke="#D9E2EC"/>
    <circle cx="74" cy="132" r="7" fill="#188F67"/>
    <circle cx="130" cy="164" r="7" fill="#B7791F"/>
    <circle cx="106" cy="198" r="7" fill="#C2413B"/>
    <path d="M52 210L156 112" stroke="#D9E2EC" stroke-width="2"/>
    <rect x="34" y="246" width="142" height="32" rx="8" fill="#EBF5FB"/>
    <text x="49" y="267" font-family="Inter, Arial" font-size="10.8" font-weight="800" fill="#1F618D">Modo puntual</text>
    <rect x="34" y="292" width="142" height="32" rx="8" fill="#FFFFFF" stroke="#D9E2EC"/>
    <text x="49" y="313" font-family="Inter, Arial" font-size="10.8" font-weight="800" fill="#17202A">Modo continuo — 30 s</text>
    <rect x="34" y="336" width="142" height="32" rx="8" fill="#FFFDE7" stroke="#E9DFA6"/>
    <text x="44" y="357" font-family="Inter, Arial" font-size="10" font-weight="800" fill="#7A5B0B">Escaneando y enviando…</text>
    <rect x="34" y="378" width="142" height="36" rx="18" fill="#2980B9"/>
    <text x="70" y="401" font-family="Inter, Arial" font-size="12.5" font-weight="850" fill="#FFFFFF">Heatmap</text>
  </g>

  <g transform="translate(765 44)">
    <rect width="210" height="442" rx="28" fill="#17202A"/>
    <rect x="14" y="22" width="182" height="398" rx="20" fill="#FFFFFF"/>
    <text x="34" y="66" font-family="Inter, Arial" font-size="18" font-weight="850" fill="#17202A">Heatmap</text>
    <rect x="34" y="92" width="142" height="42" rx="8" fill="#EBF5FB" stroke="#BBD7EA"/>
    <text x="50" y="118" font-family="Inter, Arial" font-size="12" font-weight="800" fill="#1F618D">Crear conjunto</text>
    <rect x="34" y="150" width="142" height="42" rx="8" fill="#FFFFFF" stroke="#D9E2EC"/>
    <text x="50" y="176" font-family="Inter, Arial" font-size="12" font-weight="800" fill="#17202A">Conjuntos</text>
    <rect x="34" y="212" width="142" height="104" rx="10" fill="#F8FAFC" stroke="#D9E2EC"/>
    <path d="M48 290C74 226 112 318 162 238" stroke="#2980B9" stroke-width="16" stroke-linecap="round" opacity=".35"/>
    <circle cx="78" cy="250" r="9" fill="#2980B9"/>
    <circle cx="134" cy="276" r="9" fill="#188F67"/>
    <rect x="34" y="336" width="142" height="36" rx="8" fill="#FFFFFF" stroke="#D9E2EC"/>
    <text x="45" y="359" font-family="Inter, Arial" font-size="10.8" font-weight="800" fill="#17202A">Información del heatmap</text>
    <rect x="34" y="378" width="142" height="36" rx="18" fill="#2980B9"/>
    <text x="54" y="401" font-family="Inter, Arial" font-size="12.5" font-weight="850" fill="#FFFFFF">Generar heatmap</text>
  </g>
</svg>
