<svg width="980" height="680" viewBox="0 0 980 680" fill="none" xmlns="http://www.w3.org/2000/svg" role="img" aria-labelledby="titulo desc">
  <title id="titulo">Aplicación móvil Wireless HeatMapper</title>
  <desc id="desc">Reproducción de pantallas móviles implementadas: Mis Proyectos, Planos, Captura WiFi y Heatmap.</desc>
  <rect width="980" height="680" rx="18" fill="#F4F6F8"/>

  <g transform="translate(52 46)">
    <rect width="200" height="568" rx="28" fill="#17202A"/>
    <rect x="14" y="24" width="172" height="520" rx="20" fill="#FFFFFF"/>
    <text x="32" y="70" font-family="Inter, Arial" font-size="19" font-weight="850" fill="#17202A">Mis Proyectos</text>
    <rect x="32" y="96" width="136" height="34" rx="8" fill="#F4F6F8" stroke="#D9E2EC"/>
    <text x="42" y="117" font-family="Inter, Arial" font-size="9.5" fill="#5D6B7A">Buscar por proyecto o cliente…</text>
    <rect x="32" y="154" width="136" height="76" rx="10" fill="#EBF5FB" stroke="#BBD7EA"/>
    <text x="44" y="182" font-family="Inter, Arial" font-size="13" font-weight="800" fill="#17202A">Torre Norte</text>
    <text x="44" y="204" font-family="Inter, Arial" font-size="10.5" fill="#5D6B7A">Bulldog Tech.</text>
    <text x="44" y="218" font-family="Inter, Arial" font-size="10.5" fill="#5D6B7A">Opciones</text>
    <rect x="32" y="464" width="136" height="42" rx="18" fill="#2980B9"/>
    <text x="52" y="490" font-family="Inter, Arial" font-size="13" font-weight="850" fill="#FFFFFF">Nuevo proyecto</text>
  </g>

  <g transform="translate(288 46)">
    <rect width="200" height="568" rx="28" fill="#17202A"/>
    <rect x="14" y="24" width="172" height="520" rx="20" fill="#FFFFFF"/>
    <text x="32" y="70" font-family="Inter, Arial" font-size="19" font-weight="850" fill="#17202A">Planos</text>
    <rect x="32" y="104" width="136" height="120" rx="12" fill="#F8FAFC" stroke="#D9E2EC"/>
    <rect x="48" y="122" width="104" height="58" rx="6" fill="#EBF5FB"/>
    <text x="48" y="202" font-family="Inter, Arial" font-size="12" font-weight="800" fill="#17202A">Planta baja</text>
    <text x="48" y="218" font-family="Inter, Arial" font-size="9.8" fill="#5D6B7A">Calibrado · Captura</text>
    <rect x="32" y="260" width="136" height="42" rx="8" fill="#FFFFFF" stroke="#D9E2EC"/>
    <text x="48" y="286" font-family="Inter, Arial" font-size="12" font-weight="800" fill="#17202A">Medir distancia</text>
    <rect x="32" y="318" width="136" height="42" rx="8" fill="#FFFFFF" stroke="#D9E2EC"/>
    <text x="48" y="344" font-family="Inter, Arial" font-size="12" font-weight="800" fill="#17202A">Área</text>
    <rect x="32" y="464" width="136" height="42" rx="18" fill="#2980B9"/>
    <text x="53" y="490" font-family="Inter, Arial" font-size="13" font-weight="850" fill="#FFFFFF">Importar plano</text>
  </g>

  <g transform="translate(524 46)">
    <rect width="200" height="568" rx="28" fill="#17202A"/>
    <rect x="14" y="24" width="172" height="520" rx="20" fill="#FFFFFF"/>
    <text x="32" y="70" font-family="Inter, Arial" font-size="19" font-weight="850" fill="#17202A">Captura WiFi</text>
    <rect x="32" y="102" width="136" height="156" rx="10" fill="#F8FAFC" stroke="#D9E2EC"/>
    <circle cx="72" cy="148" r="7" fill="#188F67"/>
    <circle cx="126" cy="182" r="7" fill="#B7791F"/>
    <circle cx="102" cy="220" r="7" fill="#C2413B"/>
    <path d="M50 238L150 122" stroke="#D9E2EC" stroke-width="2"/>
    <rect x="32" y="286" width="136" height="34" rx="8" fill="#EBF5FB"/>
    <text x="46" y="308" font-family="Inter, Arial" font-size="11" font-weight="800" fill="#1F618D">Modo puntual</text>
    <rect x="32" y="334" width="136" height="34" rx="8" fill="#FFFFFF" stroke="#D9E2EC"/>
    <text x="46" y="356" font-family="Inter, Arial" font-size="11" font-weight="800" fill="#17202A">Modo continuo — 30 s</text>
    <rect x="32" y="392" width="136" height="34" rx="8" fill="#FFFDE7" stroke="#E9DFA6"/>
    <text x="42" y="414" font-family="Inter, Arial" font-size="10.5" font-weight="800" fill="#7A5B0B">Escaneando y enviando…</text>
    <rect x="32" y="464" width="136" height="42" rx="18" fill="#2980B9"/>
    <text x="65" y="490" font-family="Inter, Arial" font-size="13" font-weight="850" fill="#FFFFFF">Heatmap</text>
  </g>

  <g transform="translate(760 46)">
    <rect width="200" height="568" rx="28" fill="#17202A"/>
    <rect x="14" y="24" width="172" height="520" rx="20" fill="#FFFFFF"/>
    <text x="32" y="70" font-family="Inter, Arial" font-size="19" font-weight="850" fill="#17202A">Heatmap</text>
    <rect x="32" y="100" width="136" height="44" rx="8" fill="#EBF5FB" stroke="#BBD7EA"/>
    <text x="48" y="127" font-family="Inter, Arial" font-size="12" font-weight="800" fill="#1F618D">Crear conjunto</text>
    <rect x="32" y="164" width="136" height="44" rx="8" fill="#FFFFFF" stroke="#D9E2EC"/>
    <text x="48" y="191" font-family="Inter, Arial" font-size="12" font-weight="800" fill="#17202A">Conjuntos</text>
    <rect x="32" y="232" width="136" height="118" rx="10" fill="#F8FAFC" stroke="#D9E2EC"/>
    <path d="M46 314C72 244 108 342 154 258" stroke="#2980B9" stroke-width="18" stroke-linecap="round" opacity=".35"/>
    <circle cx="74" cy="278" r="9" fill="#2980B9"/>
    <circle cx="130" cy="302" r="9" fill="#188F67"/>
    <rect x="32" y="372" width="136" height="38" rx="8" fill="#FFFFFF" stroke="#D9E2EC"/>
    <text x="47" y="396" font-family="Inter, Arial" font-size="11.5" font-weight="800" fill="#17202A">Información del heatmap</text>
    <rect x="32" y="464" width="136" height="42" rx="18" fill="#2980B9"/>
    <text x="49" y="490" font-family="Inter, Arial" font-size="13" font-weight="850" fill="#FFFFFF">Generar heatmap</text>
  </g>
</svg>
