<svg xmlns="http://www.w3.org/2000/svg" width="920" height="560" viewBox="0 0 920 560" role="img" aria-label="Heatmap e inteligencia artificial">
  <rect width="920" height="560" rx="8" fill="#FFFFFF"/>
  <rect x="32" y="32" width="536" height="496" rx="8" fill="#FFFDE7" stroke="#D9E2EC"/>
  <rect x="600" y="32" width="288" height="496" rx="8" fill="#F7FAFC" stroke="#D9E2EC"/>
  <text x="62" y="74" font-family="Arial" font-size="24" font-weight="700" fill="#17202A">Mapa de calor</text>
  <path d="M84 450L128 142L486 112L512 432Z" fill="#EBF5FB" stroke="#2980B9" stroke-width="4"/>
  <circle cx="192" cy="250" r="80" fill="#188F67" opacity="0.56"/>
  <circle cx="298" cy="244" r="98" fill="#B7791F" opacity="0.42"/>
  <circle cx="410" cy="338" r="86" fill="#C2413B" opacity="0.42"/>
  <circle cx="184" cy="246" r="10" fill="#17202A"/>
  <circle cx="302" cy="214" r="10" fill="#17202A"/>
  <circle cx="420" cy="334" r="10" fill="#17202A"/>
  <path d="M140 418L500 418" stroke="#D9E2EC" stroke-width="8" stroke-linecap="round"/>
  <path d="M140 418L248 418" stroke="#C2413B" stroke-width="8" stroke-linecap="round"/>
  <path d="M248 418L378 418" stroke="#B7791F" stroke-width="8" stroke-linecap="round"/>
  <path d="M378 418L500 418" stroke="#188F67" stroke-width="8" stroke-linecap="round"/>
  <text x="628" y="74" font-family="Arial" font-size="24" font-weight="700" fill="#17202A">Escenarios IA</text>
  <rect x="628" y="106" width="232" height="54" rx="8" fill="#FFFFFF" stroke="#D9E2EC"/>
  <text x="648" y="138" font-family="Arial" font-size="15" font-weight="700" fill="#17202A">Plano calibrado</text>
  <rect x="628" y="180" width="232" height="54" rx="8" fill="#FFFFFF" stroke="#D9E2EC"/>
  <text x="648" y="212" font-family="Arial" font-size="15" font-weight="700" fill="#17202A">Conjunto de APs</text>
  <rect x="628" y="254" width="104" height="42" rx="8" fill="#EBF5FB"/>
  <rect x="756" y="254" width="104" height="42" rx="8" fill="#EBF5FB"/>
  <text x="658" y="280" font-family="Arial" font-size="14" font-weight="700" fill="#17202A">2,4 GHz</text>
  <text x="790" y="280" font-family="Arial" font-size="14" font-weight="700" fill="#17202A">5 GHz</text>
  <rect x="628" y="326" width="232" height="56" rx="8" fill="#2980B9"/>
  <text x="682" y="360" font-family="Arial" font-size="16" font-weight="700" fill="#FFFFFF">Generar recomendacion</text>
  <rect x="628" y="414" width="232" height="68" rx="8" fill="#FFFFFF" stroke="#D9E2EC"/>
  <text x="648" y="442" font-family="Arial" font-size="15" font-weight="700" fill="#17202A">Cobertura esperada 87%</text>
  <rect x="648" y="456" width="150" height="10" rx="5" fill="#188F67"/>
</svg>
