<svg xmlns="http://www.w3.org/2000/svg" width="920" height="560" viewBox="0 0 920 560" role="img" aria-label="Panel administrador">
  <rect width="920" height="560" rx="8" fill="#FFFFFF"/>
  <rect x="24" y="24" width="190" height="512" rx="8" fill="#17202A"/>
  <text x="48" y="66" font-family="Arial" font-size="18" font-weight="700" fill="#FFFFFF">HeatMapper Admin</text>
  <rect x="44" y="104" width="138" height="34" rx="8" fill="#2980B9"/>
  <rect x="44" y="154" width="138" height="34" rx="8" fill="#2B3A49"/>
  <rect x="44" y="204" width="138" height="34" rx="8" fill="#2B3A49"/>
  <rect x="44" y="254" width="138" height="34" rx="8" fill="#2B3A49"/>
  <rect x="246" y="42" width="626" height="74" rx="8" fill="#F2F6FA"/>
  <text x="272" y="76" font-family="Arial" font-size="28" font-weight="700" fill="#17202A">Centro de operacion RF</text>
  <rect x="720" y="60" width="126" height="34" rx="8" fill="#2980B9"/>
  <text x="746" y="82" font-family="Arial" font-size="13" font-weight="700" fill="#FFFFFF">Nuevo</text>
  <g fill="#EBF5FB" stroke="#D9E2EC">
    <rect x="246" y="144" width="112" height="88" rx="8"/>
    <rect x="374" y="144" width="112" height="88" rx="8"/>
    <rect x="502" y="144" width="112" height="88" rx="8"/>
    <rect x="630" y="144" width="112" height="88" rx="8"/>
    <rect x="758" y="144" width="112" height="88" rx="8"/>
  </g>
  <g font-family="Arial" fill="#17202A" text-anchor="middle">
    <text x="302" y="179" font-size="15">Proyectos</text><text x="302" y="207" font-size="28" font-weight="700">12</text>
    <text x="430" y="179" font-size="15">Activos</text><text x="430" y="207" font-size="28" font-weight="700">7</text>
    <text x="558" y="179" font-size="15">Puntos</text><text x="558" y="207" font-size="28" font-weight="700">348</text>
    <text x="686" y="179" font-size="15">Tecnicos</text><text x="686" y="207" font-size="28" font-weight="700">4</text>
    <text x="814" y="179" font-size="15">Clientes</text><text x="814" y="207" font-size="28" font-weight="700">9</text>
  </g>
  <rect x="246" y="262" width="626" height="240" rx="8" fill="#FFFFFF" stroke="#D9E2EC"/>
  <text x="272" y="300" font-family="Arial" font-size="22" font-weight="700" fill="#17202A">Pipeline de proyectos</text>
  <g>
    <rect x="272" y="328" width="130" height="140" rx="8" fill="#F7FAFC" stroke="#D9E2EC"/>
    <rect x="418" y="328" width="130" height="140" rx="8" fill="#F7FAFC" stroke="#D9E2EC"/>
    <rect x="564" y="328" width="130" height="140" rx="8" fill="#F7FAFC" stroke="#D9E2EC"/>
    <rect x="710" y="328" width="130" height="140" rx="8" fill="#F7FAFC" stroke="#D9E2EC"/>
  </g>
  <g font-family="Arial" font-size="14" font-weight="700" fill="#17202A">
    <text x="292" y="354">Nuevo</text>
    <text x="438" y="354">En progreso</text>
    <text x="584" y="354">Completado</text>
    <text x="730" y="354">Archivado</text>
  </g>
  <g fill="#FFFFFF" stroke="#D9E2EC">
    <rect x="286" y="374" width="102" height="60" rx="8"/>
    <rect x="432" y="374" width="102" height="60" rx="8"/>
    <rect x="578" y="374" width="102" height="60" rx="8"/>
    <rect x="724" y="374" width="102" height="60" rx="8"/>
  </g>
  <g fill="#2980B9">
    <rect x="298" y="412" width="24" height="8" rx="4"/>
    <rect x="444" y="412" width="24" height="8" rx="4"/>
    <rect x="590" y="412" width="24" height="8" rx="4"/>
    <rect x="736" y="412" width="24" height="8" rx="4"/>
  </g>
</svg>
