<svg width="980" height="640" viewBox="0 0 980 640" fill="none" xmlns="http://www.w3.org/2000/svg" role="img" aria-labelledby="titulo desc">
  <title id="titulo">Panel web Proyectos RF</title>
  <desc id="desc">Reproducción de la pantalla Proyectos RF para publicación.</desc>
  <rect width="980" height="640" rx="18" fill="#F4F6F8"/>
  <rect x="34" y="34" width="912" height="572" rx="14" fill="#FFFFFF" stroke="#D9E2EC"/>

  <rect x="34" y="34" width="232" height="572" rx="14" fill="#17202A"/>
  <text x="64" y="82" font-family="Inter, Arial" font-size="20" font-weight="800" fill="#FFFFFF">HeatMapper Admin</text>
  <text x="64" y="124" font-family="Inter, Arial" font-size="11" font-weight="800" fill="#9FB3C8">CENTRO RF</text>
  <rect x="54" y="140" width="192" height="38" rx="8" fill="#253241"/>
  <text x="76" y="164" font-family="Inter, Arial" font-size="13" font-weight="700" fill="#FFFFFF">Inicio</text>
  <text x="64" y="212" font-family="Inter, Arial" font-size="11" font-weight="800" fill="#9FB3C8">OPERACIÓN RF</text>
  <rect x="54" y="228" width="192" height="38" rx="8" fill="#2980B9"/>
  <text x="76" y="252" font-family="Inter, Arial" font-size="13" font-weight="800" fill="#FFFFFF">Proyectos RF</text>
  <text x="64" y="300" font-family="Inter, Arial" font-size="11" font-weight="800" fill="#9FB3C8">ADMINISTRACIÓN</text>
  <text x="76" y="338" font-family="Inter, Arial" font-size="13" font-weight="700" fill="#D9E2EC">Usuarios</text>
  <text x="76" y="378" font-family="Inter, Arial" font-size="13" font-weight="700" fill="#D9E2EC">Clientes</text>
  <rect x="54" y="532" width="192" height="42" rx="8" fill="#253241"/>
  <text x="76" y="558" font-family="Inter, Arial" font-size="13" font-weight="800" fill="#FFFFFF">Cerrar sesión</text>

  <text x="306" y="96" font-family="Inter, Arial" font-size="12" font-weight="800" fill="#2980B9">Operación RF</text>
  <text x="306" y="132" font-family="Inter, Arial" font-size="30" font-weight="850" fill="#17202A">Proyectos RF para publicación</text>
  <text x="306" y="162" font-family="Inter, Arial" font-size="15" fill="#5D6B7A">Administre proyectos de relevamiento y prepare la entrega al cliente.</text>
  <rect x="770" y="90" width="138" height="42" rx="8" fill="#2980B9"/>
  <text x="797" y="117" font-family="Inter, Arial" font-size="14" font-weight="800" fill="#FFFFFF">Nuevo proyecto</text>

  <rect x="306" y="194" width="254" height="42" rx="8" fill="#FFFFFF" stroke="#D9E2EC"/>
  <text x="326" y="221" font-family="Inter, Arial" font-size="13" fill="#5D6B7A">Todos los técnicos</text>

  <rect x="306" y="262" width="602" height="92" rx="12" fill="#F8FAFC" stroke="#D9E2EC"/>
  <text x="330" y="296" font-family="Inter, Arial" font-size="20" font-weight="800" fill="#17202A">Oficinas Bulldog Tech.</text>
  <text x="330" y="324" font-family="Inter, Arial" font-size="13" fill="#5D6B7A">Técnico: Jhasmany Fernandez · Cliente: Bulldog Tech.</text>
  <rect x="680" y="286" width="90" height="30" rx="7" fill="#EBF5FB"/>
  <text x="700" y="306" font-family="Inter, Arial" font-size="12" font-weight="800" fill="#1F618D">Datos RF</text>
  <rect x="786" y="286" width="96" height="30" rx="7" fill="#FFFDE7"/>
  <text x="805" y="306" font-family="Inter, Arial" font-size="12" font-weight="800" fill="#7A5B0B">Entrega</text>

  <rect x="306" y="382" width="602" height="136" rx="12" fill="#FFFFFF" stroke="#D9E2EC"/>
  <text x="330" y="414" font-family="Inter, Arial" font-size="13" font-weight="800" fill="#5D6B7A">Flujo RF del proyecto</text>
  <rect x="330" y="438" width="112" height="34" rx="8" fill="#F0F7FC" stroke="#BBD7EA"/>
  <text x="350" y="460" font-family="Inter, Arial" font-size="12" font-weight="800" fill="#1F618D">Conjuntos AP</text>
  <rect x="456" y="438" width="112" height="34" rx="8" fill="#F0F7FC" stroke="#BBD7EA"/>
  <text x="475" y="460" font-family="Inter, Arial" font-size="12" font-weight="800" fill="#1F618D">Escenarios IA</text>
  <rect x="582" y="438" width="104" height="34" rx="8" fill="#F0F7FC" stroke="#BBD7EA"/>
  <text x="602" y="460" font-family="Inter, Arial" font-size="12" font-weight="800" fill="#1F618D">Publicación</text>
  <rect x="330" y="486" width="82" height="32" rx="8" fill="#FFFFFF" stroke="#D9E2EC"/>
  <text x="352" y="507" font-family="Inter, Arial" font-size="12" font-weight="800" fill="#5D6B7A">Editar</text>
  <rect x="426" y="486" width="98" height="32" rx="8" fill="#FFFFFF" stroke="#D9E2EC"/>
  <text x="446" y="507" font-family="Inter, Arial" font-size="12" font-weight="800" fill="#5D6B7A">Reasignar</text>
  <rect x="538" y="486" width="88" height="32" rx="8" fill="#FFECEC" stroke="#F2B8B5"/>
  <text x="558" y="507" font-family="Inter, Arial" font-size="12" font-weight="800" fill="#C2413B">Eliminar</text>

  <rect x="306" y="544" width="116" height="34" rx="8" fill="#FFFFFF" stroke="#D9E2EC"/>
  <text x="333" y="566" font-family="Inter, Arial" font-size="12" font-weight="800" fill="#5D6B7A">‹ Anterior</text>
  <text x="606" y="566" font-family="Inter, Arial" font-size="12" font-weight="800" fill="#5D6B7A">Página 1 de 1</text>
  <rect x="792" y="544" width="116" height="34" rx="8" fill="#FFFFFF" stroke="#D9E2EC"/>
  <text x="822" y="566" font-family="Inter, Arial" font-size="12" font-weight="800" fill="#5D6B7A">Siguiente ›</text>
</svg>
