<svg xmlns="http://www.w3.org/2000/svg" width="1200" height="420" viewBox="0 0 1200 420" role="img" aria-labelledby="title desc">
  <title id="title">Team 24 Software</title>
  <desc id="desc">Logotipo corporativo de Team 24 Software con marca T24 y nodos de trazabilidad.</desc>
  <defs>
    <linearGradient id="azulMarca" x1="0" x2="1" y1="0" y2="1">
      <stop offset="0" stop-color="#0B2A55"/>
      <stop offset="0.55" stop-color="#0F5DE8"/>
      <stop offset="1" stop-color="#18C6D9"/>
    </linearGradient>
    <linearGradient id="azulTexto" x1="0" x2="1">
      <stop offset="0" stop-color="#071B3A"/>
      <stop offset="1" stop-color="#0B4DB8"/>
    </linearGradient>
  </defs>

  <rect width="1200" height="420" rx="0" fill="#FFFFFF"/>

  <g transform="translate(84 62)">
    <path d="M14 32H310L283 77H184L116 250H65L133 77H-12L14 32Z" fill="#071B3A"/>
    <path d="M234 90H343C390 90 418 113 418 151C418 177 403 199 375 214L299 255H423L400 300H202L218 264L339 198C362 186 374 173 374 155C374 139 360 130 335 130H214L234 90Z" fill="#0F5DE8"/>
    <path d="M493 32H552L498 181H578L593 136H646L631 181H684L665 225H612L586 300H532L558 225H428L443 186L493 32Z" fill="#071B3A"/>

    <path d="M70 102C34 154 28 218 76 273" fill="none" stroke="#0B2A55" stroke-width="12" stroke-linecap="round"/>
    <path d="M99 300C184 351 300 340 371 268" fill="none" stroke="#0B2A55" stroke-width="12" stroke-linecap="round"/>
    <circle cx="72" cy="112" r="17" fill="#FFFFFF" stroke="#0B2A55" stroke-width="9"/>
    <circle cx="72" cy="112" r="8" fill="#18C6D9"/>
    <circle cx="52" cy="174" r="17" fill="#FFFFFF" stroke="#0B2A55" stroke-width="9"/>
    <circle cx="52" cy="174" r="8" fill="#18C6D9"/>
    <circle cx="70" cy="237" r="17" fill="#FFFFFF" stroke="#0B2A55" stroke-width="9"/>
    <circle cx="70" cy="237" r="8" fill="#18C6D9"/>
    <path d="M615 77L656 77L639 109H598L615 77Z" fill="#18C6D9"/>
  </g>

  <g transform="translate(808 121)">
    <text x="0" y="62" font-family="Montserrat, Poppins, Arial, sans-serif" font-size="68" font-weight="800" fill="#071B3A" letter-spacing="0">Team</text>
    <text x="0" y="142" font-family="Montserrat, Poppins, Arial, sans-serif" font-size="86" font-weight="900" fill="url(#azulTexto)" letter-spacing="0">24</text>
    <text x="0" y="206" font-family="Montserrat, Poppins, Arial, sans-serif" font-size="48" font-weight="700" fill="#071B3A" letter-spacing="0">Software</text>
    <line x1="2" y1="242" x2="290" y2="242" stroke="#0B2A55" stroke-width="7" stroke-linecap="round"/>
    <line x1="106" y1="242" x2="190" y2="242" stroke="#18C6D9" stroke-width="7" stroke-linecap="round"/>
    <circle cx="148" cy="242" r="17" fill="#FFFFFF" stroke="#18C6D9" stroke-width="8"/>
  </g>
</svg>
