<svg width="980" height="620" viewBox="0 0 980 620" fill="none" xmlns="http://www.w3.org/2000/svg" role="img" aria-labelledby="titulo desc">
  <title id="titulo">Vista general de Wireless HeatMapper</title>
  <desc id="desc">Composición de las pantallas principales: panel web, aplicación móvil y portal cliente.</desc>
  <rect width="980" height="620" rx="18" fill="#F6F8FA"/>
  <rect x="40" y="42" width="900" height="536" rx="16" fill="#FFFFFF" stroke="#D9E2EC"/>

  <text x="70" y="92" font-family="Inter, Arial" font-size="28" font-weight="800" fill="#17202A">Wireless HeatMapper</text>
  <text x="70" y="124" font-family="Inter, Arial" font-size="16" fill="#5D6B7A">Flujo implementado para administrador, técnico y cliente</text>

  <rect x="70" y="170" width="260" height="314" rx="12" fill="#EBF5FB" stroke="#BBD7EA"/>
  <text x="95" y="212" font-family="Inter, Arial" font-size="18" font-weight="800" fill="#1F618D">Panel web</text>
  <rect x="95" y="238" width="210" height="42" rx="8" fill="#FFFFFF" stroke="#D9E2EC"/>
  <text x="113" y="264" font-family="Inter, Arial" font-size="14" font-weight="700" fill="#17202A">Proyectos RF</text>
  <rect x="95" y="296" width="210" height="42" rx="8" fill="#FFFFFF" stroke="#D9E2EC"/>
  <text x="113" y="322" font-family="Inter, Arial" font-size="14" font-weight="700" fill="#17202A">Conjuntos AP</text>
  <rect x="95" y="354" width="210" height="42" rx="8" fill="#FFFFFF" stroke="#D9E2EC"/>
  <text x="113" y="380" font-family="Inter, Arial" font-size="14" font-weight="700" fill="#17202A">Escenarios IA</text>
  <rect x="95" y="412" width="210" height="42" rx="8" fill="#FFFFFF" stroke="#D9E2EC"/>
  <text x="113" y="438" font-family="Inter, Arial" font-size="14" font-weight="700" fill="#17202A">Publicación</text>

  <rect x="360" y="158" width="250" height="360" rx="28" fill="#17202A"/>
  <rect x="376" y="182" width="218" height="312" rx="20" fill="#FFFFFF"/>
  <text x="398" y="220" font-family="Inter, Arial" font-size="18" font-weight="800" fill="#17202A">Mis Proyectos</text>
  <rect x="398" y="244" width="174" height="34" rx="8" fill="#F4F6F8" stroke="#D9E2EC"/>
  <text x="414" y="266" font-family="Inter, Arial" font-size="11" fill="#5D6B7A">Buscar por proyecto o cliente…</text>
  <rect x="398" y="302" width="174" height="62" rx="10" fill="#EBF5FB" stroke="#BBD7EA"/>
  <text x="414" y="327" font-family="Inter, Arial" font-size="13" font-weight="800" fill="#17202A">Planos</text>
  <text x="414" y="349" font-family="Inter, Arial" font-size="11" fill="#5D6B7A">Importar plano · Captura</text>
  <rect x="398" y="382" width="174" height="62" rx="10" fill="#FFFDE7" stroke="#E9DFA6"/>
  <text x="414" y="407" font-family="Inter, Arial" font-size="13" font-weight="800" fill="#17202A">Heatmap</text>
  <text x="414" y="429" font-family="Inter, Arial" font-size="11" fill="#5D6B7A">Crear conjunto · Generar</text>

  <rect x="646" y="170" width="264" height="314" rx="12" fill="#F8FAFC" stroke="#D9E2EC"/>
  <text x="674" y="212" font-family="Inter, Arial" font-size="18" font-weight="800" fill="#17202A">Portal cliente</text>
  <rect x="674" y="236" width="208" height="48" rx="9" fill="#FFFFFF" stroke="#D9E2EC"/>
  <text x="692" y="266" font-family="Inter, Arial" font-size="13" font-weight="800" fill="#17202A">Datos relevados</text>
  <rect x="674" y="302" width="208" height="48" rx="9" fill="#FFFFFF" stroke="#D9E2EC"/>
  <text x="692" y="332" font-family="Inter, Arial" font-size="13" font-weight="800" fill="#17202A">Modelo IA</text>
  <rect x="674" y="374" width="208" height="78" rx="9" fill="#2980B9"/>
  <text x="692" y="407" font-family="Inter, Arial" font-size="13" font-weight="800" fill="#FFFFFF">Generar heatmap</text>
  <text x="692" y="432" font-family="Inter, Arial" font-size="11" fill="#DCEFFB">Heatmap · APs · Puntos</text>

  <path d="M330 328H360" stroke="#8190A1" stroke-width="2" stroke-linecap="round"/>
  <path d="M610 328H646" stroke="#8190A1" stroke-width="2" stroke-linecap="round"/>
  <circle cx="346" cy="328" r="4" fill="#2980B9"/>
  <circle cx="628" cy="328" r="4" fill="#2980B9"/>
</svg>
