<svg xmlns="http://www.w3.org/2000/svg" width="920" height="620" viewBox="0 0 920 620" role="img" aria-label="Ecosistema Wireless HeatMapper">
  <rect width="920" height="620" rx="8" fill="#FFFFFF"/>
  <rect x="28" y="28" width="864" height="564" rx="8" fill="#F2F6FA" stroke="#D9E2EC"/>
  <rect x="68" y="82" width="314" height="390" rx="8" fill="#17202A"/>
  <rect x="88" y="112" width="274" height="42" rx="8" fill="#2980B9"/>
  <text x="108" y="139" font-family="Arial" font-size="18" font-weight="700" fill="#FFFFFF">App tecnica Android</text>
  <rect x="90" y="182" width="246" height="52" rx="8" fill="#FFFFFF"/>
  <rect x="90" y="250" width="246" height="52" rx="8" fill="#FFFFFF"/>
  <rect x="90" y="318" width="246" height="112" rx="8" fill="#EBF5FB"/>
  <circle cx="132" cy="374" r="14" fill="#188F67"/>
  <circle cx="198" cy="356" r="14" fill="#B7791F"/>
  <circle cx="262" cy="394" r="14" fill="#C2413B"/>
  <path d="M130 374L198 356L262 394" fill="none" stroke="#2980B9" stroke-width="4"/>
  <rect x="440" y="82" width="392" height="236" rx="8" fill="#FFFFFF" stroke="#D9E2EC"/>
  <rect x="466" y="112" width="340" height="36" rx="8" fill="#2980B9"/>
  <text x="486" y="136" font-family="Arial" font-size="18" font-weight="700" fill="#FFFFFF">Panel administrador</text>
  <rect x="466" y="174" width="92" height="70" rx="8" fill="#EBF5FB"/>
  <rect x="578" y="174" width="92" height="70" rx="8" fill="#EBF5FB"/>
  <rect x="690" y="174" width="92" height="70" rx="8" fill="#EBF5FB"/>
  <rect x="466" y="264" width="316" height="26" rx="8" fill="#F2F6FA"/>
  <rect x="440" y="358" width="392" height="114" rx="8" fill="#FFFDE7" stroke="#D9E2EC"/>
  <text x="466" y="398" font-family="Arial" font-size="18" font-weight="700" fill="#17202A">Portal cliente por enlace</text>
  <rect x="466" y="420" width="140" height="28" rx="8" fill="#188F67"/>
  <rect x="626" y="420" width="156" height="28" rx="8" fill="#2980B9"/>
  <path d="M382 278H440" stroke="#2980B9" stroke-width="5" stroke-linecap="round"/>
  <path d="M636 318V358" stroke="#2980B9" stroke-width="5" stroke-linecap="round"/>
  <text x="70" y="535" font-family="Arial" font-size="18" fill="#5F6F82">Backend FastAPI + PostgreSQL como fuente central</text>
  <rect x="68" y="510" width="764" height="42" rx="8" fill="none" stroke="#2980B9" stroke-width="3"/>
</svg>
